<?xml version="1.0"?>
<svg width="640" height="480" xmlns="http://www.w3.org/2000/svg" xmlns:svg="http://www.w3.org/2000/svg">
 <g class="layer">
  <title>Layer 1</title>
  <rect fill="#3f3f3f" height="449" id="svg_1" stroke="#3f3f3f" stroke-width="5" transform="matrix(1, 0, 0, 1, 0, 0)" width="635" x="3" y="30"/>
  <rect fill="#357ec7" height="30" id="svg_2" stroke="#357ec7" stroke-dasharray="null" stroke-linecap="null" stroke-linejoin="null" stroke-width="5" width="634.87" x="3" y="3"/>
  <rect fill="#de482b" height="26.52" id="svg_3" stroke="#e5e5e5" stroke-dasharray="null" stroke-linecap="null" stroke-linejoin="null" width="31.3" x="603.8" y="4.86"/>
  <path d="m606.43,8.93c0.43,0.79 1.06,1.45 1.72,1.93c0.72,0.52 1.48,1.06 2.16,1.57c0.7,0.53 1.49,0.84 2.35,1.14c0.86,0.3 1.53,0.92 2.32,1.24c0.87,0.36 1.75,0.61 2.39,1.26c0.6,0.61 1.1,1.35 1.9,1.73c0.8,0.37 1.47,0.73 2.27,1.13c0.76,0.38 1.57,0.77 2.33,1.1c0.86,0.38 1.62,0.67 2.42,1.15c0.73,0.44 1.68,0.62 2.38,1.12c0.71,0.51 1.31,1.27 1.89,1.87l0.36,0.74l0.47,0.88l0.39,0.77" fill="none" fill-opacity="null" id="svg_6" stroke="#e5e5e5" stroke-dasharray="null" stroke-linecap="null" stroke-linejoin="null" stroke-opacity="null" stroke-width="3"/>
  <path d="m608.93,26.43c0.96,-0.8 1.41,-1.16 1.96,-1.58c1.02,-0.78 1.84,-1.37 2.26,-1.68c0.87,-0.63 1.31,-0.95 2.56,-1.86c0.38,-0.28 1.09,-0.8 1.74,-1.28c0.9,-0.67 1.76,-1.32 2.32,-1.74c0.54,-0.41 1.29,-0.95 2.23,-1.64c0.8,-0.58 1.35,-1.08 1.98,-1.71c0.69,-0.69 1.44,-1.02 1.93,-1.54c0.59,-0.63 1.26,-1.29 1.89,-1.92l0.59,-0.59l0.64,-0.64l0.65,-0.65" fill="none" id="svg_9" stroke="#e5e5e5" stroke-dasharray="null" stroke-linecap="null" stroke-linejoin="null" stroke-width="5"/>
  <text fill="#000000" font-family="Serif" font-size="21" id="svg_11" stroke="#3f3f3f" stroke-dasharray="null" stroke-linecap="null" stroke-linejoin="null" stroke-width="0" style="cursor: move;" text-anchor="middle" x="28.36" xml:space="preserve" y="99.24"/>
  <text fill="#e5e5e5" fill-opacity="null" font-family="Monospace" font-size="18" id="svg_13" stroke="#3f3f3f" stroke-dasharray="null" stroke-linecap="null" stroke-linejoin="null" stroke-opacity="null" stroke-width="0" text-anchor="middle" x="40" xml:space="preserve" y="78.18"/>
  <text fill="#e5e5e5" fill-opacity="null" font-family="Monospace" font-size="18" id="svg_14" stroke="#3f3f3f" stroke-dasharray="null" stroke-linecap="null" stroke-linejoin="null" stroke-opacity="null" stroke-width="0" text-anchor="middle" transform="matrix(1, 0, 0, 1, 0, 0)" x="94.17" xml:space="preserve" y="61.52">~$ wget r3tro.sh</text>
  <text fill="#e5e5e5" fill-opacity="null" font-family="Monospace" font-size="18" id="svg_15" stroke="#3f3f3f" stroke-dasharray="null" stroke-linecap="null" stroke-linejoin="null" stroke-width="0" style="cursor: move;" text-anchor="middle" transform="matrix(1, 0, 0, 1, 0, 0)" x="285.83" xml:space="preserve" y="87.08">Loading: 8s, ETA: 9s[==========&gt;     ]3.97Kb/8.72Kb</text>
  <text fill="#e5e5e5" fill-opacity="null" font-family="Monospace" font-size="18" id="svg_16" stroke="#3f3f3f" stroke-dasharray="null" stroke-linecap="null" stroke-linejoin="null" stroke-width="0" text-anchor="middle" transform="matrix(1, 0, 0, 1, 0, 0)" x="305.83" xml:space="preserve" y="111.25">Error: Panic 0x000ff1337 -- /\oo/\//\(oo)/\\ //\(oo)/\\</text>
  <text fill="#e5e5e5" fill-opacity="null" font-family="Monospace" font-size="18" id="svg_17" stroke="#3f3f3f" stroke-dasharray="null" stroke-linecap="null" stroke-linejoin="null" stroke-width="0" text-anchor="middle" transform="matrix(1, 0, 0, 1, 0, 0)" x="290" xml:space="preserve" y="136.25">//\(oo)/\\/\oo/\//\(oo)/\\//\(oo)/\\/\oo/\//\(oo)/\\</text>
  <text fill="#e5e5e5" fill-opacity="null" font-family="Monospace" font-size="18" id="svg_18" stroke="#3f3f3f" stroke-dasharray="null" stroke-linecap="null" stroke-linejoin="null" stroke-width="0" text-anchor="middle" transform="matrix(1, 0, 0, 1, 0, 0)" x="191.67" xml:space="preserve" y="158.75">SPIDERS! AAAAAAAAAAAAAAA//\(oo)/\\</text>
  <text fill="#e5e5e5" fill-opacity="null" font-family="Monospace" font-size="18" id="svg_19" stroke="#3f3f3f" stroke-dasharray="null" stroke-linecap="null" stroke-linejoin="null" stroke-width="0" text-anchor="middle" x="320.42" xml:space="preserve" y="180.42">//\(oo)/\\/\oo/\//\( ͡° ͜ʖ ͡°)/\\//\(oo)/\\/\oo/\//\(oo)/\\</text>
  <text fill="#e5e5e5" fill-opacity="null" font-family="Helvetica" font-size="18" font-weight="bold" id="svg_20" stroke="#3f3f3f" stroke-dasharray="null" stroke-linecap="null" stroke-linejoin="null" stroke-width="0" text-anchor="middle" x="143.75" xml:space="preserve" y="23.75">C:\\Windows\system32\cmd.exe</text>
 </g>
</svg>
